<?xml version="1.0" standalone="no"?>
<!DOCTYPE svg PUBLIC "-//W3C//DTD SVG 20010904//EN"
 "http://www.w3.org/TR/2001/REC-SVG-20010904/DTD/svg10.dtd">
<svg version="1.0" xmlns="http://www.w3.org/2000/svg"
 width="960.000000pt" height="960.000000pt" viewBox="0 0 960.000000 960.000000"
 preserveAspectRatio="xMidYMid meet">
<metadata>
Created by potrace 1.11, written by Peter Selinger 2001-2013
</metadata>
<g transform="translate(0.000000,960.000000) scale(0.100000,-0.100000)"
fill="#000000" stroke="none">
<path d="M8330 9309 c-52 -16 -104 -31 -115 -34 -11 -2 -47 -12 -80 -21 -33
-9 -64 -17 -70 -19 -5 -1 -17 -5 -25 -8 -13 -5 -365 -104 -395 -112 -36 -8
-76 -19 -112 -31 -23 -7 -52 -16 -65 -18 -13 -3 -60 -16 -106 -29 -45 -14 -85
-25 -87 -26 -3 -1 -10 -3 -17 -6 -13 -4 -121 -33 -149 -40 -9 -2 -49 -13 -89
-25 -40 -12 -81 -24 -91 -26 -29 -6 -47 -11 -144 -39 -49 -14 -97 -28 -105
-30 -71 -19 -173 -48 -265 -75 -60 -17 -120 -34 -133 -36 -13 -3 -42 -11 -65
-19 -41 -13 -117 -34 -147 -40 -8 -2 -15 -4 -15 -5 0 -1 -7 -3 -15 -5 -8 -2
-49 -14 -90 -25 -41 -12 -108 -30 -148 -41 -40 -11 -127 -36 -195 -55 -67 -20
-132 -38 -145 -40 -13 -3 -42 -11 -65 -18 -45 -15 -150 -45 -179 -52 -33 -7
-52 -13 -233 -64 -99 -28 -202 -58 -230 -66 -27 -9 -59 -18 -69 -20 -31 -6
-351 -96 -355 -100 -2 -2 2 -25 9 -51 6 -26 14 -55 16 -63 5 -22 40 -147 59
-210 9 -30 18 -66 21 -79 3 -14 7 -28 10 -33 3 -4 7 -18 9 -29 3 -12 16 -63
31 -113 14 -50 27 -95 29 -101 10 -43 18 -72 22 -85 4 -8 8 -26 10 -39 2 -14
9 -33 14 -43 5 -10 8 -18 6 -18 -2 0 -80 75 -173 166 -93 91 -301 294 -463
452 -162 158 -356 348 -431 422 -76 74 -222 217 -324 316 l-185 182 -283 -290
c-156 -160 -350 -359 -433 -443 -82 -85 -262 -269 -400 -410 -137 -141 -329
-337 -425 -435 -96 -99 -247 -252 -335 -342 -88 -90 -179 -185 -202 -211 -24
-26 -43 -44 -43 -40 0 4 -7 -1 -16 -12 -8 -11 -131 -139 -273 -285 -143 -146
-332 -339 -420 -430 l-161 -165 194 -190 c107 -104 286 -279 398 -389 297
-290 812 -794 1024 -1001 101 -99 184 -180 184 -180 0 1 89 -86 197 -192 109
-107 325 -319 481 -471 156 -152 349 -341 430 -420 80 -78 149 -142 153 -142
4 0 58 52 121 116 62 64 174 178 248 254 74 76 159 163 187 193 29 31 55 52
58 47 3 -5 -13 -80 -35 -167 -37 -143 -45 -175 -55 -223 -2 -8 -4 -15 -6 -15
-1 0 -3 -9 -5 -20 -1 -11 -17 -74 -34 -140 -18 -66 -34 -129 -37 -140 -9 -41
-12 -50 -13 -50 -1 0 -3 -9 -5 -20 -2 -11 -13 -56 -25 -100 -12 -44 -23 -87
-25 -95 -2 -8 -19 -78 -40 -155 -20 -77 -38 -149 -41 -160 -7 -36 -16 -72 -39
-155 -37 -140 -47 -179 -50 -200 -2 -14 -4 -26 -5 -27 -1 -2 -4 -7 -5 -13 -1
-5 -3 -11 -5 -12 -1 -2 -3 -10 -5 -18 -7 -37 -97 -385 -100 -391 -4 -6 37 -20
100 -35 17 -4 35 -8 40 -10 6 -2 19 -5 30 -8 11 -3 35 -9 53 -15 18 -5 35 -10
37 -10 3 -1 6 -1 8 -2 6 -2 44 -10 62 -13 11 -3 70 -17 130 -33 61 -17 113
-31 117 -32 4 -1 13 -3 20 -5 34 -11 227 -58 253 -63 17 -3 38 -9 48 -14 9 -5
17 -8 17 -5 0 3 15 0 33 -5 17 -6 43 -12 57 -15 14 -2 32 -7 40 -10 32 -12
204 -54 221 -54 11 0 19 -4 19 -8 0 -4 14 -9 31 -10 17 -1 39 -6 48 -11 9 -4
45 -14 81 -21 36 -7 71 -17 77 -23 7 -5 13 -7 13 -4 0 3 51 -8 113 -25 61 -16
125 -32 140 -34 15 -2 37 -8 47 -14 11 -6 20 -9 20 -6 0 3 15 0 33 -5 17 -6
59 -17 92 -26 82 -20 82 -20 150 -39 33 -9 69 -18 80 -19 11 -2 90 -22 175
-45 85 -22 164 -43 175 -45 34 -7 109 -27 125 -32 8 -3 22 -7 30 -8 32 -6 264
-66 328 -84 18 -5 35 -10 37 -10 3 -1 6 -1 8 -2 1 0 11 -2 22 -4 11 -3 72 -18
135 -35 63 -17 126 -33 140 -36 14 -3 59 -14 100 -25 41 -12 104 -27 140 -36
36 -8 72 -17 80 -19 8 -3 16 -5 17 -5 2 0 43 -11 93 -24 49 -14 101 -27 115
-29 13 -3 28 -7 33 -10 5 -3 19 -7 33 -10 46 -10 67 -14 105 -25 21 -6 40 -8
42 -6 5 5 98 360 107 409 3 16 8 33 11 38 3 4 7 18 10 30 3 13 8 34 11 48 3
14 6 31 6 38 0 6 4 12 9 12 5 0 7 4 4 9 -3 4 -1 23 5 42 5 19 12 41 14 49 2 8
17 70 35 137 17 67 33 130 35 140 2 10 22 90 46 178 23 88 46 180 51 205 5 25
11 51 13 58 3 7 5 14 5 17 1 3 8 28 17 57 8 29 17 64 20 78 2 14 10 48 18 75
19 67 122 473 129 505 3 14 13 52 22 85 9 33 18 69 21 80 5 22 5 24 21 80 6
22 13 51 16 65 3 14 33 131 66 260 34 129 64 246 67 260 3 14 21 86 40 160 20
74 37 142 38 150 2 8 4 15 5 15 1 0 3 10 6 22 2 13 13 58 25 100 11 43 22 85
24 93 2 8 8 33 14 55 14 59 42 168 46 185 2 8 16 60 30 115 14 55 28 111 31
124 3 14 7 28 9 32 3 4 7 24 11 45 3 20 10 48 15 62 5 14 8 27 6 29 -4 4 -209
57 -437 114 -69 17 -132 33 -140 36 -8 3 -22 7 -30 8 -20 4 -46 11 -100 25
-25 7 -52 13 -60 15 -8 2 -26 7 -40 13 -14 5 -31 7 -37 5 -7 -3 -13 0 -13 6 0
6 7 12 15 12 16 2 32 5 40 9 3 1 8 3 13 4 21 6 111 31 237 67 77 22 147 42
155 44 8 1 35 9 60 16 51 14 63 17 88 23 9 3 17 5 17 6 0 1 7 3 15 5 8 1 42
11 75 21 33 10 65 19 70 20 6 1 44 12 85 24 41 12 84 23 95 25 11 2 43 11 70
19 86 26 637 181 675 191 8 2 15 4 15 5 0 1 7 3 16 5 16 3 227 61 314 87 22 6
43 14 47 17 4 3 -4 44 -18 91 -13 47 -26 94 -29 105 -2 11 -11 43 -19 70 -19
66 -76 265 -82 290 -3 11 -7 27 -9 35 -2 8 -4 15 -5 15 -2 0 -9 25 -16 60 -3
17 -9 39 -14 50 -9 23 -51 169 -54 190 -1 8 -5 18 -9 21 -4 4 -7 19 -7 34 0
15 -3 30 -7 34 -4 3 -8 12 -9 19 -2 12 -15 58 -56 202 -10 39 -23 84 -27 100
-31 113 -83 303 -88 315 -3 8 -8 21 -10 28 -7 27 -10 38 -18 67 -4 17 -18 68
-32 115 -22 78 -27 97 -38 140 -2 8 -4 15 -5 15 -1 0 -3 7 -5 15 -1 8 -10 40
-19 71 -9 31 -19 65 -21 75 -4 20 -27 97 -44 152 -5 17 -7 32 -4 32 3 0 1 6
-5 13 -6 7 -13 24 -15 37 -2 14 -6 32 -9 40 -3 8 -16 53 -28 100 -12 47 -26
96 -31 110 -5 14 -16 52 -25 85 -20 74 -25 93 -63 230 -18 61 -34 118 -36 128
-3 9 -7 25 -10 35 -2 9 -14 51 -26 92 -11 41 -30 107 -40 145 -11 39 -22 77
-24 85 -8 29 -46 166 -60 215 -7 28 -23 84 -35 125 -33 113 -60 212 -65 236
-10 43 -32 98 -41 100 -5 1 -52 -11 -104 -27z m-209 -678 c24 -89 55 -201 75
-266 8 -27 17 -61 19 -75 3 -14 17 -61 30 -105 13 -44 27 -91 29 -105 2 -14 6
-27 7 -30 1 -3 3 -9 4 -15 1 -5 7 -23 13 -38 7 -16 12 -34 12 -40 0 -7 11 -47
24 -89 13 -43 22 -78 19 -78 -3 0 0 -7 7 -15 7 -8 10 -15 6 -15 -3 0 -1 -12 5
-27 6 -16 12 -36 15 -47 2 -10 11 -44 20 -75 9 -31 18 -63 19 -71 2 -8 4 -16
4 -17 1 -2 1 -4 0 -5 0 -2 5 -16 12 -33 6 -16 13 -39 15 -50 3 -21 81 -300 91
-325 3 -8 7 -22 9 -30 1 -8 12 -49 24 -90 12 -41 30 -106 40 -145 11 -38 31
-108 45 -155 14 -47 27 -94 29 -105 6 -32 18 -79 25 -90 3 -5 7 -19 8 -29 2
-11 10 -39 18 -62 8 -24 16 -54 19 -66 2 -13 13 -55 25 -93 11 -39 27 -95 35
-125 8 -30 31 -111 51 -180 20 -69 38 -135 40 -146 2 -12 8 -30 14 -41 5 -11
8 -23 4 -26 -3 -4 0 -13 7 -22 7 -8 10 -15 7 -15 -3 0 3 -27 13 -60 18 -59 18
-60 -1 -70 -10 -6 -19 -8 -19 -6 0 3 -12 1 -27 -5 -16 -6 -35 -12 -43 -14 -8
-2 -35 -9 -60 -16 -51 -14 -63 -17 -87 -23 -10 -3 -18 -5 -18 -6 0 -1 -7 -3
-15 -5 -8 -2 -49 -13 -90 -25 -41 -11 -83 -23 -92 -25 -26 -7 -34 -9 -233 -66
-99 -28 -236 -66 -305 -85 -69 -18 -145 -40 -170 -48 -25 -8 -90 -27 -145 -41
-55 -14 -127 -35 -160 -45 -57 -17 -203 -58 -235 -65 -8 -2 -46 -13 -85 -25
-38 -12 -78 -23 -88 -25 -10 -2 -27 -7 -37 -10 -10 -3 -27 -8 -37 -10 -10 -2
-58 -15 -108 -30 -49 -15 -115 -33 -145 -41 -30 -8 -69 -19 -86 -25 -17 -5
-40 -12 -50 -14 -10 -2 -39 -10 -64 -18 -25 -8 -54 -13 -65 -11 -24 3 -30 4
-160 38 -55 15 -110 29 -123 32 -13 2 -94 23 -180 45 -184 48 -192 50 -212 54
-8 1 -22 5 -30 8 -8 3 -27 8 -42 11 -24 5 -34 20 -43 60 -1 6 -4 18 -7 26 -6
16 -28 94 -33 119 -2 9 -13 47 -24 85 l-20 69 72 74 c40 42 136 141 215 222
l143 146 -243 238 c-134 131 -302 296 -375 367 -129 125 -163 169 -163 208 0
10 -3 22 -7 26 -4 3 -8 17 -10 29 -2 12 -7 33 -12 47 -5 14 -23 79 -41 145
-18 66 -35 127 -38 135 -3 8 -6 18 -7 23 -2 4 -3 8 -5 10 -1 1 -3 11 -5 22 -2
11 -11 45 -20 75 -9 30 -18 66 -21 79 -3 14 -7 28 -10 33 -3 4 -7 16 -9 25 -2
10 -22 83 -44 163 -23 80 -44 156 -47 170 -2 14 -7 32 -11 40 -3 8 -8 24 -10
35 -2 11 -10 36 -18 56 -14 36 -14 37 13 47 58 22 95 32 102 27 5 -3 10 -2 12
3 1 4 41 18 88 30 47 13 99 27 115 32 263 75 363 102 378 103 9 1 17 4 17 7 0
3 12 7 26 8 14 1 31 5 37 9 7 4 17 8 22 9 6 1 45 11 88 23 43 13 86 24 95 26
32 7 347 96 362 102 18 7 11 5 80 22 30 8 62 17 71 22 9 4 30 11 48 14 28 5
302 81 376 104 38 12 115 33 135 37 8 1 47 12 85 24 39 12 77 23 85 25 8 2 89
24 180 50 91 26 172 49 180 50 8 2 16 4 18 5 1 2 7 4 12 5 6 1 11 3 13 5 1 1
11 3 22 5 11 2 76 19 145 39 69 20 136 39 149 42 13 3 32 9 43 15 10 5 18 8
18 5 0 -2 26 4 58 14 31 9 61 14 65 10 5 -4 17 -40 28 -79z m-4844 -758 c147
-144 351 -343 453 -443 478 -468 671 -655 680 -658 6 -2 8 -8 4 -13 -3 -5 -1
-9 3 -9 5 0 102 -91 217 -203 l207 -203 19 -69 c40 -150 51 -191 61 -220 5
-16 34 -118 64 -225 30 -107 58 -210 64 -227 9 -32 8 -34 -118 -164 l-128
-131 -109 27 c-60 15 -116 28 -124 29 -8 2 -35 9 -60 15 -25 7 -52 15 -60 17
-8 2 -60 14 -115 28 -55 14 -108 27 -117 30 -13 3 -19 -7 -28 -43 -6 -25 -12
-53 -14 -61 -2 -8 -14 -53 -26 -100 -12 -47 -23 -92 -25 -100 -2 -8 -15 -60
-29 -115 -15 -55 -29 -108 -31 -118 -2 -10 -6 -26 -9 -35 -3 -9 -7 -28 -10
-42 -3 -14 -10 -43 -16 -65 -6 -22 -12 -47 -14 -55 -60 -246 -78 -296 -115
-335 -73 -75 -426 -437 -579 -594 -85 -86 -166 -169 -181 -186 -15 -16 -42
-43 -59 -59 l-32 -29 -82 81 c-113 110 -389 381 -706 690 -145 141 -346 338
-447 437 -101 99 -296 290 -435 425 -479 467 -660 647 -660 655 0 4 58 67 129
139 71 72 175 179 232 237 57 59 241 247 409 419 168 172 348 356 400 410 52
53 196 201 320 327 124 127 351 359 504 517 154 157 283 285 287 284 4 -2 128
-121 276 -265z m1747 -3143 c14 0 27 -4 30 -8 2 -4 19 -9 37 -10 18 -2 36 -6
39 -10 3 -4 10 -7 15 -7 6 0 45 -9 87 -19 65 -17 79 -24 87 -45 10 -30 49
-164 57 -201 6 -30 9 -40 17 -60 13 -35 77 -271 77 -284 0 -21 20 -24 67 -10
24 7 43 10 43 6 0 -4 4 -2 8 3 6 8 52 24 117 39 6 2 30 9 55 16 25 7 52 14 60
15 8 1 22 5 30 8 8 3 58 17 110 32 52 15 102 29 110 32 8 3 24 8 35 10 11 2
36 8 55 13 19 5 40 10 45 11 6 1 26 7 45 14 31 12 212 63 251 70 8 2 40 -3 70
-12 29 -8 61 -16 69 -18 8 -1 35 -8 60 -15 25 -7 52 -13 60 -15 8 -2 35 -8 60
-15 25 -7 52 -14 60 -15 8 -2 17 -4 20 -5 3 -1 9 -2 14 -1 4 1 14 -4 22 -10 8
-6 14 -9 14 -6 0 3 15 1 33 -4 27 -8 359 -93 407 -104 8 -2 30 -9 49 -14 19
-6 37 -8 42 -6 4 3 9 1 11 -4 1 -5 17 -10 33 -12 17 -2 36 -7 43 -12 6 -5 12
-7 12 -3 0 3 11 1 26 -4 14 -6 38 -12 54 -15 16 -3 40 -9 53 -14 l24 -9 -23
-89 c-14 -48 -26 -97 -28 -108 -3 -11 -28 -110 -56 -220 -29 -110 -56 -216
-60 -235 -5 -19 -18 -71 -30 -115 -11 -44 -22 -89 -24 -100 -3 -11 -5 -20 -6
-20 -1 0 -3 -9 -5 -21 -3 -11 -12 -47 -20 -80 -9 -32 -18 -66 -20 -74 -2 -8
-15 -62 -30 -120 -15 -58 -28 -112 -30 -120 -2 -8 -13 -49 -25 -90 -12 -41
-23 -84 -24 -95 -4 -25 -32 -135 -51 -200 -8 -27 -17 -61 -19 -75 -3 -14 -19
-79 -36 -144 -18 -66 -34 -128 -36 -138 -2 -10 -6 -26 -8 -36 -2 -9 -9 -37
-16 -62 -7 -25 -14 -52 -16 -60 -2 -8 -15 -60 -29 -115 -15 -55 -33 -129 -41
-165 -7 -36 -17 -72 -20 -80 -8 -16 -9 -21 -18 -60 -3 -14 -10 -43 -16 -65 -6
-22 -13 -49 -15 -61 -3 -11 -19 -72 -36 -135 -16 -63 -32 -125 -34 -139 -2
-14 -11 -53 -20 -86 l-17 -61 -31 7 c-18 5 -68 18 -112 30 -44 12 -89 23 -100
25 -11 1 -20 3 -20 4 0 3 -18 8 -60 16 -16 3 -61 15 -98 26 -38 11 -78 21 -90
23 -12 1 -29 5 -37 9 -8 3 -105 28 -215 56 -110 27 -227 57 -260 66 -33 9 -71
18 -85 21 -14 3 -34 8 -45 11 -11 4 -24 8 -30 9 -5 1 -120 30 -255 64 -135 34
-249 63 -255 65 -5 1 -17 5 -25 8 -8 3 -26 8 -40 10 -14 3 -133 33 -265 67
-132 34 -247 63 -256 65 -8 2 -39 10 -67 19 -29 8 -52 13 -52 10 0 -3 -8 0
-19 5 -10 6 -33 13 -52 16 -19 3 -72 16 -119 30 -47 13 -96 26 -110 28 -14 2
-32 6 -40 9 -14 6 -163 43 -205 53 -49 10 -220 56 -223 60 -2 2 6 41 18 87 29
112 31 120 35 143 2 11 4 20 5 20 1 0 3 7 5 15 1 8 8 35 15 60 7 25 14 52 15
60 2 8 8 30 14 48 5 17 8 32 5 32 -3 0 0 8 5 18 6 11 12 30 15 43 8 40 13 59
46 189 18 69 33 132 35 140 2 8 19 76 39 150 19 74 51 198 71 275 45 176 36
140 89 355 26 102 49 192 53 200 3 8 7 24 9 35 1 11 17 74 34 140 17 66 33
127 35 135 2 8 13 53 25 100 12 47 24 92 25 100 2 8 4 15 5 15 1 0 3 9 5 20
10 56 30 112 44 126 9 9 137 141 285 293 228 234 271 274 287 266 10 -6 29
-10 43 -10z"/>
</g>
</svg>
