<?xml version="1.0" encoding="UTF-8" standalone="no"?>
<svg
   xmlns:dc="http://purl.org/dc/elements/1.1/"
   xmlns:cc="http://creativecommons.org/ns#"
   xmlns:rdf="http://www.w3.org/1999/02/22-rdf-syntax-ns#"
   xmlns:svg="http://www.w3.org/2000/svg"
   xmlns="http://www.w3.org/2000/svg"
   xmlns:sodipodi="http://sodipodi.sourceforge.net/DTD/sodipodi-0.dtd"
   xmlns:inkscape="http://www.inkscape.org/namespaces/inkscape"
   height="144"
   width="264"
   version="1.1"
   viewBox="0 0 69.849999 38.100001"
   id="svg10"
   sodipodi:docname="fake-img.svg"
   inkscape:version="0.92.2 (5c3e80d, 2017-08-06)">
  <metadata
     id="metadata16">
    <rdf:RDF>
      <cc:Work
         rdf:about="">
        <dc:format>image/svg+xml</dc:format>
        <dc:type
           rdf:resource="http://purl.org/dc/dcmitype/StillImage" />
      </cc:Work>
    </rdf:RDF>
  </metadata>
  <defs
     id="defs14">
    <inkscape:path-effect
       only_selected="false"
       apply_with_weight="true"
       apply_no_weight="true"
       helper_size="0"
       steps="2"
       weight="33.333333"
       is_visible="true"
       id="path-effect824"
       effect="bspline" />
    <inkscape:path-effect
       effect="bspline"
       id="path-effect820"
       is_visible="true"
       weight="33.333333"
       steps="2"
       helper_size="0"
       apply_no_weight="true"
       apply_with_weight="true"
       only_selected="false" />
    <inkscape:path-effect
       only_selected="false"
       apply_with_weight="true"
       apply_no_weight="true"
       helper_size="0"
       steps="2"
       weight="33.333333"
       is_visible="true"
       id="path-effect823"
       effect="bspline" />
    <inkscape:path-effect
       effect="bspline"
       id="path-effect819"
       is_visible="true"
       weight="33.333333"
       steps="2"
       helper_size="0"
       apply_no_weight="true"
       apply_with_weight="true"
       only_selected="false" />
  </defs>
  <sodipodi:namedview
     pagecolor="#ffffff"
     bordercolor="#666666"
     borderopacity="1"
     objecttolerance="10"
     gridtolerance="10"
     guidetolerance="10"
     inkscape:pageopacity="0"
     inkscape:pageshadow="2"
     inkscape:window-width="1366"
     inkscape:window-height="703"
     id="namedview12"
     showgrid="false"
     inkscape:zoom="3.5141064"
     inkscape:cx="162.6511"
     inkscape:cy="80.398122"
     inkscape:window-x="0"
     inkscape:window-y="0"
     inkscape:window-maximized="1"
     inkscape:current-layer="g8" />
  <g
     transform="translate(0,-258.9)"
     id="g8"
     style="stroke:#b3b3b3">
    <rect
       style="fill:none;stroke-width:0.26458001;stroke-linecap:square;paint-order:markers fill stroke"
       height="38.099998"
       width="69.849998"
       y="258.89999"
       x="7.6293998e-07"
       id="rect2" />
    <path
       inkscape:connector-curvature="0"
       id="path828"
       style="font-size:medium;line-height:1.25;font-family:Arial;letter-spacing:0px;word-spacing:0px;fill:#b3b3b3;stroke:#b3b3b3;stroke-width:0.044926"
       d="m 15.609993,280.32124 v 0.72864 h -4.08124 q -0.0084,-0.27376 0.08845,-0.52647 0.155837,-0.41697 0.496993,-0.8213 0.345368,-0.40434 0.993986,-0.93503 1.006622,-0.82551 1.360414,-1.30566 0.353791,-0.48435 0.353791,-0.91396 0,-0.45066 -0.324309,-0.75812 -0.320097,-0.31168 -0.838149,-0.31168 -0.547535,0 -0.876056,0.32852 -0.328521,0.32853 -0.332732,0.90975 l -0.779185,-0.08 q 0.08003,-0.87184 0.602289,-1.32672 0.522264,-0.45909 1.402531,-0.45909 0.888691,0 1.406743,0.49279 0.518053,0.49278 0.518053,1.22142 0,0.37064 -0.151625,0.72864 -0.151625,0.35801 -0.505417,0.75392 -0.34958,0.39591 -1.16667,1.08664 -0.682313,0.57281 -0.876056,0.77919 -0.193743,0.20216 -0.320097,0.40854 z" />
    <path
       inkscape:connector-curvature="0"
       id="path830"
       style="font-size:medium;line-height:1.25;font-family:Arial;letter-spacing:0px;word-spacing:0px;fill:#b3b3b3;stroke:#b3b3b3;stroke-width:0.044926"
       d="m 20.360911,276.33474 -0.753913,0.059 q -0.101084,-0.44645 -0.286403,-0.64862 -0.307462,-0.32431 -0.758125,-0.32431 -0.362216,0 -0.635983,0.20217 -0.358004,0.26113 -0.564382,0.76234 -0.206379,0.5012 -0.214802,1.4278 0.273767,-0.41697 0.669677,-0.61914 0.39591,-0.20216 0.829726,-0.20216 0.758125,0 1.288812,0.56017 0.5349,0.55595 0.5349,1.44043 0,0.58123 -0.252709,1.08244 -0.248496,0.49699 -0.686524,0.76233 -0.438028,0.26535 -0.993986,0.26535 -0.947657,0 -1.545733,-0.69495 -0.598077,-0.69916 -0.598077,-2.29965 0,-1.79001 0.661254,-2.60289 0.577017,-0.70759 1.554157,-0.70759 0.728642,0 1.191941,0.40855 0.46751,0.40855 0.56017,1.12876 z m -3.095678,2.66187 q 0,0.39169 0.164261,0.7497 0.168472,0.358 0.46751,0.54753 0.299038,0.18532 0.627559,0.18532 0.480146,0 0.825514,-0.38748 0.345369,-0.38749 0.345369,-1.05296 0,-0.64019 -0.341157,-1.00662 -0.341156,-0.37064 -0.859208,-0.37064 -0.513841,0 -0.871844,0.37064 -0.358004,0.36643 -0.358004,0.96451 z" />
    <path
       inkscape:connector-curvature="0"
       id="path832"
       style="font-size:medium;line-height:1.25;font-family:Arial;letter-spacing:0px;word-spacing:0px;fill:#b3b3b3;stroke:#b3b3b3;stroke-width:0.044926"
       d="m 23.658755,281.03725 v -1.47834 h -2.678708 v -0.69495 l 2.817698,-4.00121 h 0.619136 v 4.00121 h 0.833937 v 0.69495 h -0.833937 v 1.47834 z m 0,-2.17329 v -2.784 l -1.933219,2.784 z" />
    <path
       inkscape:connector-curvature="0"
       id="path834"
       style="font-size:medium;line-height:1.25;font-family:Arial;letter-spacing:0px;word-spacing:0px;fill:#b3b3b3;stroke:#b3b3b3;stroke-width:0.03661469"
       d="m 33.305731,279.45408 1.614009,-1.56356 -1.493373,-1.4446 h 0.935958 l 0.67805,0.70531 q 0.191352,0.2011 0.307827,0.33706 0.183032,-0.18694 0.336945,-0.3314 l 0.744609,-0.71097 h 0.89436 l -1.526654,1.41627 1.64313,1.59189 h -0.919321 l -0.90684,-0.93473 -0.24127,-0.25211 -1.160589,1.18684 z" />
    <path
       inkscape:connector-curvature="0"
       id="path836"
       style="font-size:medium;line-height:1.25;font-family:Arial;letter-spacing:0px;word-spacing:0px;fill:#b3b3b3;stroke:#b3b3b3;stroke-width:0.044926"
       d="m 47.552331,281.04989 h -0.758125 v -4.83094 q -0.273767,0.26113 -0.720219,0.52227 -0.442239,0.26113 -0.796031,0.39169 v -0.73285 q 0.635983,-0.29904 1.111917,-0.72443 0.475934,-0.42539 0.673889,-0.82552 h 0.488569 z" />
    <path
       inkscape:connector-curvature="0"
       id="path838"
       style="font-size:medium;line-height:1.25;font-family:Arial;letter-spacing:0px;word-spacing:0px;fill:#b3b3b3;stroke:#b3b3b3;stroke-width:0.044926"
       d="m 51.928399,281.03725 v -1.47834 H 49.24969 v -0.69495 l 2.817699,-4.00121 h 0.619135 v 4.00121 h 0.833938 v 0.69495 h -0.833938 v 1.47834 z m 0,-2.17329 v -2.784 l -1.933219,2.784 z" />
    <path
       inkscape:connector-curvature="0"
       id="path840"
       style="font-size:medium;line-height:1.25;font-family:Arial;letter-spacing:0px;word-spacing:0px;fill:#b3b3b3;stroke:#b3b3b3;stroke-width:0.044926"
       d="m 56.729859,281.03725 v -1.47834 h -2.678708 v -0.69495 l 2.817698,-4.00121 h 0.619136 v 4.00121 h 0.833937 v 0.69495 h -0.833937 v 1.47834 z m 0,-2.17329 v -2.784 l -1.933219,2.784 z" />
  </g>
</svg>
